<svg xmlns="http://www.w3.org/2000/svg" width="506" height="375.5" viewBox="0 0 506 375.5"><title>struktur organisasi</title><g id="Layer_2" data-name="Layer 2"><g id="Layer_1-2" data-name="Layer 1"><line x1="138.75" y1="81.75" x2="368.08" y2="81.75" style="fill:#fff;stroke:#231f20;stroke-miterlimit:10;stroke-width:2px"/><line x1="402.25" y1="266.49" x2="442.67" y2="266.49" style="fill:#fff"/><line x1="402.25" y1="266.49" x2="403.25" y2="266.49" style="fill:none;stroke:#231f20;stroke-miterlimit:10;stroke-width:2px"/><line x1="405.27" y1="266.49" x2="440.66" y2="266.49" style="fill:none;stroke:#231f20;stroke-miterlimit:10;stroke-width:2px;stroke-dasharray:2.0219297409057617,2.0219297409057617"/><line x1="441.67" y1="266.49" x2="442.67" y2="266.49" style="fill:none;stroke:#231f20;stroke-miterlimit:10;stroke-width:2px"/><line x1="308.75" y1="44" x2="349.17" y2="44" style="fill:#fff"/><line x1="308.75" y1="44" x2="309.75" y2="44" style="fill:none;stroke:#231f20;stroke-miterlimit:10;stroke-width:2px"/><line x1="311.77" y1="44" x2="347.16" y2="44" style="fill:none;stroke:#231f20;stroke-miterlimit:10;stroke-width:2px;stroke-dasharray:2.0219297409057617,2.0219297409057617"/><line x1="348.17" y1="44" x2="349.17" y2="44" style="fill:none;stroke:#231f20;stroke-miterlimit:10;stroke-width:2px"/><line x1="178.69" y1="265.05" x2="323.75" y2="265.05" style="fill:#fff;stroke:#231f20;stroke-miterlimit:10;stroke-width:2px"/><line x1="402.25" y1="277.58" x2="442.67" y2="277.58" style="fill:#fff;stroke:#231f20;stroke-miterlimit:10;stroke-width:2px"/><line x1="51.25" y1="99.38" x2="185.88" y2="99.38" style="fill:#fff;stroke:#231f20;stroke-miterlimit:10;stroke-width:2px"/><line x1="46.44" y1="170.06" x2="452" y2="170.06" style="fill:#fff;stroke:#231f20;stroke-miterlimit:10;stroke-width:2px"/><line x1="253.25" y1="18.5" x2="253.25" y2="366.38" style="fill:#fff;stroke:#231f20;stroke-miterlimit:10;stroke-width:2px"/><line x1="319.5" y1="169.13" x2="319.5" y2="236.5" style="fill:#fff;stroke:#231f20;stroke-miterlimit:10;stroke-width:2px"/><line x1="185.88" y1="169.13" x2="185.88" y2="236.5" style="fill:#fff;stroke:#231f20;stroke-miterlimit:10;stroke-width:2px"/><line x1="178.69" y1="263.88" x2="178.69" y2="290.83" style="fill:#231f20;stroke:#231f20;stroke-miterlimit:10;stroke-width:2px"/><line x1="323.75" y1="264.15" x2="323.75" y2="291.1" style="fill:#231f20;stroke:#231f20;stroke-miterlimit:10;stroke-width:2px"/><line x1="185.5" y1="83.31" x2="185.5" y2="126.5" style="fill:#fff;stroke:#231f20;stroke-miterlimit:10;stroke-width:2px"/><line x1="52.25" y1="98.73" x2="52.25" y2="127.75" style="fill:#231f20;stroke:#231f20;stroke-miterlimit:10;stroke-width:2px"/><line x1="47.42" y1="236.5" x2="47.42" y2="169.12" style="fill:#231f20;stroke:#231f20;stroke-miterlimit:10;stroke-width:2px"/><line x1="451.25" y1="169.13" x2="451.25" y2="198.25" style="fill:#fff;stroke:#231f20;stroke-miterlimit:10;stroke-width:2px"/><rect x="198.5" width="109.5" height="21.75" rx="5" ry="5" style="fill:#fff9cb"/><path d="M308,11V4.58A4.8,4.8,0,0,0,303,0H203.5a4.8,4.8,0,0,0-5,4.58V11Z" style="fill:#231f20"/><text transform="translate(234.36 7.14)" style="font-size:7px;fill:#fff;font-family:ArialMT, Arial">PENGASUH</text><rect x="199.25" y="32" width="109.5" height="24" rx="5" ry="5" style="fill:#fff9cb"/><path d="M308.75,44V37a5,5,0,0,0-5-5h-99.5a5,5,0,0,0-5,5v7Z" style="fill:#231f20"/><text transform="translate(224.08 40.14)" style="font-size:7px;fill:#fff;font-family:ArialMT, Arial">KE<tspan x="9.34" y="0" style="letter-spacing:-0.07421875em">P</tspan><tspan x="13.49" y="0">AL</tspan><tspan x="22.05" y="0" style="letter-spacing:-0.05517578125em">A</tspan><tspan x="26.33" y="0" xml:space="preserve"> SEKOLAH</tspan></text><rect x="348" y="32" width="109.5" height="24" rx="5" ry="5" style="fill:#fff9cb"/><path d="M457.5,44V37a5,5,0,0,0-5-5H353a5,5,0,0,0-5,5v7Z" style="fill:#231f20"/><text transform="translate(372.58 40.14)" style="font-size:7px;fill:#fff;font-family:ArialMT, Arial">KOMITE SEKOLAH</text><rect y="105" width="109.5" height="24" rx="5" ry="5" style="fill:#bac6e5"/><path d="M109.5,117v-7a5,5,0,0,0-5-5H5a5,5,0,0,0-5,5v7Z" style="fill:#231f20"/><text transform="translate(38.25 113.14)" style="font-size:7px;fill:#fff;font-family:ArialMT, Arial">BAGIAN I<tspan x="30.34" y="0" style="letter-spacing:-0.018136160714285716em">T</tspan></text><rect x="0.75" y="212.5" width="109.5" height="24" rx="5" ry="5" style="fill:#bac6e5"/><path d="M110.25,224.5v-7a5,5,0,0,0-5-5H5.75a5,5,0,0,0-5,5v7Z" style="fill:#231f20"/><text transform="translate(21.5 220.64)" style="font-size:7px;fill:#fff;font-family:ArialMT, Arial">KA. PERPUS<tspan x="42.01" y="0" style="letter-spacing:-0.07421875em">T</tspan><tspan x="45.77" y="0">AKAAN</tspan></text><rect x="133" y="212.5" width="109.5" height="24" rx="5" ry="5" style="fill:#bac6e5"/><path d="M242.5,224.5v-7a5,5,0,0,0-5-5H138a5,5,0,0,0-5,5v7Z" style="fill:#231f20"/><text transform="translate(163.6 220.64)" style="font-size:7px;fill:#fff;font-family:ArialMT, Arial">PEMBIN<tspan x="26.84" y="0" style="letter-spacing:-0.05510602678571429em">A</tspan><tspan x="31.12" y="0" xml:space="preserve" style="letter-spacing:-0.00013950892857142856em"> OSIS</tspan></text><rect x="265.75" y="212.5" width="109.5" height="24" rx="5" ry="5" style="fill:#bac6e5"/><path d="M375.25,224.5v-7a5,5,0,0,0-5-5h-99.5a5,5,0,0,0-5,5v7Z" style="fill:#231f20"/><text transform="translate(314.25 220.64)" style="font-size:7px;fill:#fff;font-family:ArialMT, Arial">BKK</text><rect x="133" y="105" width="109.5" height="24" rx="5" ry="5" style="fill:#bac6e5"/><path d="M242.5,117v-7a5,5,0,0,0-5-5H138a5,5,0,0,0-5,5v7Z" style="fill:#231f20"/><text transform="translate(169.18 113.14)" style="font-size:7px;fill:#fff;font-family:ArialMT, Arial">OPER<tspan x="19.84" y="0" style="letter-spacing:-0.07421875em">A</tspan><tspan x="23.99" y="0" style="letter-spacing:-0.018136160714285716em">T</tspan><tspan x="28.14" y="0">OR</tspan></text><rect x="133" y="69.75" width="109.5" height="24" rx="5" ry="5" style="fill:#fff9cb"/><path d="M242.5,81.75v-7a5,5,0,0,0-5-5H138a5,5,0,0,0-5,5v7Z" style="fill:#514b9f"/><text transform="translate(169.76 77.89)" style="font-size:7px;fill:#fff;font-family:ArialMT, Arial">KE<tspan x="9.34" y="0" style="letter-spacing:-0.07421875em">P</tspan><tspan x="13.49" y="0">AL</tspan><tspan x="22.05" y="0" style="letter-spacing:-0.05510602678571429em">A</tspan><tspan x="26.33" y="0" style="letter-spacing:-0.018136160714285716em"> </tspan><tspan x="28.15" y="0">TU</tspan></text><rect x="265.75" y="174.25" width="109.5" height="24" rx="5" ry="5" style="fill:#fff9cb"/><path d="M375.25,186.25v-7a5,5,0,0,0-5-5h-99.5a5,5,0,0,0-5,5v7Z" style="fill:#514b9f"/><text transform="translate(290.15 182.39)" style="font-size:7px;fill:#fff;font-family:ArialNarrow, Arial"><tspan style="letter-spacing:-0.02978515625em">W</tspan><tspan x="5.21" y="0">AKA. HUMAS / B</tspan><tspan x="49.22" y="0" style="letter-spacing:-0.014090401785714286em">P</tspan><tspan x="52.95" y="0" xml:space="preserve"> PK</tspan></text><rect x="265.75" y="270.25" width="109.5" height="24" rx="5" ry="5" style="fill:#fff9cb"/><path d="M375.25,282.25v-7a5,5,0,0,0-5-5h-99.5a5,5,0,0,0-5,5v7Z" style="fill:#514b9f"/><text transform="translate(274.44 278.39)" style="font-size:7px;fill:#fff;font-family:ArialMT, Arial">KA. PROG. KEAHLIAN<tspan x="72.36" y="0" style="letter-spacing:-0.018136160714285716em"> </tspan><tspan x="74.17" y="0">TBSM</tspan></text><rect x="133" y="270.25" width="109.5" height="24" rx="5" ry="5" style="fill:#fff9cb"/><rect x="199.25" y="316" width="109.5" height="24" rx="5" ry="5" style="fill:#231f20"/><path d="M242.5,282.25v-7a5,5,0,0,0-5-5H138a5,5,0,0,0-5,5v7Z" style="fill:#514b9f"/><text transform="translate(145.19 278.81)" style="font-size:7px;fill:#fff;font-family:ArialMT, Arial">KA. PROG. KEAHLIAN<tspan x="72.36" y="0" style="letter-spacing:-0.018136160714285716em"> </tspan><tspan x="74.17" y="0">TKJ</tspan></text><rect x="265.75" y="69.75" width="109.5" height="24" rx="5" ry="5" style="fill:#fff9cb"/><path d="M375.25,81.75v-7a5,5,0,0,0-5-5h-99.5a5,5,0,0,0-5,5v7Z" style="fill:#514b9f"/><text transform="translate(299.66 77.89)" style="font-size:7px;fill:#fff;font-family:ArialMT, Arial">BENDAHAR<tspan x="38.9" y="0" style="letter-spacing:-0.05510602678571429em">A</tspan></text><rect x="133" y="174.25" width="109.5" height="24" rx="5" ry="5" style="fill:#fff9cb"/><path d="M242.5,186.25v-7a5,5,0,0,0-5-5H138a5,5,0,0,0-5,5v7Z" style="fill:#514b9f"/><text transform="translate(155.7 182.39)" style="font-size:7px;fill:#fff;font-family:ArialMT, Arial"><tspan style="letter-spacing:-0.037109375em">W</tspan><tspan x="6.35" y="0">AKA. KESIS</tspan><tspan x="44.86" y="0" style="letter-spacing:-0.037109375em">W</tspan><tspan x="51.21" y="0">AAN</tspan></text><rect x="0.75" y="174.25" width="109.5" height="24" rx="5" ry="5" style="fill:#fff9cb"/><path d="M110.25,186.25v-7a5,5,0,0,0-5-5H5.75a5,5,0,0,0-5,5v7Z" style="fill:#514b9f"/><text transform="translate(23.51 182.39)" style="font-size:7px;fill:#fff;font-family:ArialMT, Arial"><tspan style="letter-spacing:-0.037109375em">W</tspan><tspan x="6.35" y="0">AKA. KURIKULUM</tspan></text><rect x="396.5" y="174.25" width="109.5" height="24" rx="5" ry="5" style="fill:#fff9cb"/><path d="M506,186.25v-7a5,5,0,0,0-5-5H401.5a5,5,0,0,0-5,5v7Z" style="fill:#514b9f"/><text transform="translate(425.68 182.39)" style="font-size:7px;fill:#fff;font-family:ArialMT, Arial"><tspan style="letter-spacing:-0.037109375em">W</tspan><tspan x="6.35" y="0">AKA. SARAN</tspan><tspan x="48.36" y="0" style="letter-spacing:-0.05510602678571429em">A</tspan></text><text transform="translate(234.04 330.09)" style="font-size:7px;fill:#fff;font-family:MyriadPro-Regular, Myriad Pro">D<tspan x="4.66" y="0" style="letter-spacing:0.008998325892857142em">E</tspan><tspan x="8.17" y="0" style="letter-spacing:-0.05698939732142857em">W</tspan><tspan x="13.69" y="0">AN GURU</tspan></text><rect x="200" y="351.5" width="109.5" height="24" rx="5" ry="5" style="fill:#231f20"/><text transform="translate(246.31 365.59)" style="font-size:7px;fill:#fff;font-family:MyriadPro-Regular, Myriad Pro">SIS<tspan x="8.58" y="0" style="letter-spacing:-0.05705915178571429em">W</tspan><tspan x="14.1" y="0">A</tspan></text><text transform="translate(401.65 255.83)" style="font-size:7px;fill:#231f20;font-family:MyriadPro-Regular, Myriad Pro">Ke<tspan x="7.3" y="0" style="letter-spacing:-0.005998883928571429em">t</tspan><tspan x="9.58" y="0">e</tspan><tspan x="13.08" y="0" style="letter-spacing:-0.005022321428571429em">r</tspan><tspan x="15.34" y="0">angan :</tspan></text><text transform="translate(450 268.63)" style="font-size:7px;fill:#231f20;font-family:MyriadPro-Regular, Myriad Pro"><tspan style="letter-spacing:0.010044642857142858em">I</tspan><tspan x="1.74" y="0" style="letter-spacing:-0.004045758928571429em">n</tspan><tspan x="5.6" y="0">truksi</tspan></text><text transform="translate(449.99 279.13)" style="font-size:7px;fill:#231f20;font-family:MyriadPro-Regular, Myriad Pro">Ko<tspan x="7.64" y="0" style="letter-spacing:-0.010044642857142858em">r</tspan><tspan x="9.86" y="0">dinasi</tspan></text></g></g></svg>